<?xml version="1.0" encoding="utf-8"?>
<!-- Generator: Adobe Illustrator 23.0.1, SVG Export Plug-In . SVG Version: 6.00 Build 0)  -->
<svg version="1.1" xmlns="http://www.w3.org/2000/svg" xmlns:xlink="http://www.w3.org/1999/xlink" x="0px" y="0px"
	 viewBox="0 0 29.2 60.1" style="enable-background:new 0 0 29.2 60.1;" xml:space="preserve">
<style type="text/css">
	.st0{display:none;}
	.st1{fill:#DB202C;}
	.st2{fill:none;}
</style>
<g id="Livello_1" class="st0">
</g>
<g id="Livello_2">
	<g>
		<g>
			<path class="st1" d="M-101.2,108.3H-87c4.9,0,8.4,1.1,10.7,3.4c2.2,2.3,3.3,5.7,3.3,10.4v2.4c0,3.1-0.5,5.6-1.5,7.6
				c-1,1.9-2.5,3.3-4.6,4.2v0.2c4.7,1.6,7,5.8,7,12.5v5.2c0,4.6-1.2,8.2-3.6,10.6c-2.4,2.4-6,3.6-10.7,3.6h-14.9V108.3z
				 M-88.1,132.8c1.9,0,3.3-0.5,4.2-1.5c0.9-1,1.4-2.6,1.4-4.9v-3.3c0-2.2-0.4-3.8-1.2-4.7c-0.8-1-2-1.5-3.6-1.5h-4.6v15.9H-88.1z
				 M-86.4,159.9c1.7,0,2.9-0.4,3.7-1.3c0.8-0.9,1.2-2.4,1.2-4.6v-5.2c0-2.7-0.5-4.7-1.4-5.7c-0.9-1.1-2.5-1.6-4.7-1.6h-4.2v18.5
				H-86.4z"/>
			<path class="st1" d="M-63.5,165.4c-2.5-2.6-3.7-6.4-3.7-11.2v-31.6c0-4.8,1.2-8.5,3.7-11.2c2.5-2.6,6-3.9,10.6-3.9
				s8.2,1.3,10.7,3.9c2.5,2.6,3.7,6.4,3.7,11.2v31.6c0,4.8-1.2,8.5-3.7,11.2c-2.5,2.6-6,3.9-10.7,3.9S-61.1,168-63.5,165.4z
				 M-48,154.8V122c0-3.9-1.6-5.9-4.9-5.9c-3.3,0-4.9,2-4.9,5.9v32.8c0,3.9,1.6,5.9,4.9,5.9C-49.6,160.7-48,158.7-48,154.8z"/>
			<path class="st1" d="M-29.2,165.4c-2.5-2.6-3.7-6.4-3.7-11.2v-31.6c0-4.8,1.2-8.5,3.7-11.2c2.5-2.6,6-3.9,10.6-3.9
				s8.2,1.3,10.7,3.9c2.5,2.6,3.7,6.4,3.7,11.2v31.6c0,4.8-1.2,8.5-3.7,11.2c-2.5,2.6-6,3.9-10.7,3.9S-26.7,168-29.2,165.4z
				 M-13.6,154.8V122c0-3.9-1.6-5.9-4.9-5.9s-4.9,2-4.9,5.9v32.8c0,3.9,1.6,5.9,4.9,5.9S-13.6,158.7-13.6,154.8z"/>
			<path class="st1" d="M2.2,108.3h9.4v51.5h15.5v8.6h-25V108.3z"/>
			<path class="st1" d="M31.7,108.3h25v8.6H41.2v16.7h12.2v8.6H41.2v26.2h-9.4V108.3z"/>
			<path class="st1" d="M61.3,108.3h9.4v51.5h15.5v8.6h-25V108.3z"/>
			<path class="st1" d="M90.8,108.3h9.4v60.1h-9.4V108.3z"/>
			<path class="st1" d="M115.6,137.7l-10.4-29.4h10l6.4,19.4h0.2l6.5-19.4h8.9l-10.4,29.4l10.9,30.7h-10l-6.9-21h-0.2l-7,21h-8.9
				L115.6,137.7z"/>
		</g>
	</g>
	<path class="st1" d="M0,0h14.3c4.9,0,8.4,1.1,10.7,3.4c2.2,2.3,3.3,5.7,3.3,10.4v2.4c0,3.1-0.5,5.6-1.5,7.6c-1,1.9-2.5,3.3-4.6,4.2
		v0.2c4.7,1.6,7,5.8,7,12.5v5.2c0,4.6-1.2,8.2-3.6,10.6c-2.4,2.4-6,3.6-10.7,3.6H0V0z M13.1,24.5c1.9,0,3.3-0.5,4.2-1.5
		c0.9-1,1.4-2.6,1.4-4.9v-3.3c0-2.2-0.4-3.8-1.2-4.7c-0.8-1-2-1.5-3.6-1.5H9.4v15.9H13.1z M14.9,51.5c1.7,0,2.9-0.4,3.7-1.3
		c0.8-0.9,1.2-2.4,1.2-4.6v-5.2c0-2.7-0.5-4.7-1.4-5.7c-0.9-1.1-2.5-1.6-4.7-1.6H9.4v18.5H14.9z"/>
	<polyline class="st2" points="14.6,8.6 14.6,9.1 14.6,25 14.6,33.1 14.6,33.6 14.6,51.5 	"/>
</g>
</svg>
