<?xml version="1.0" encoding="utf-8"?>
<!-- Generator: Adobe Illustrator 24.0.1, SVG Export Plug-In . SVG Version: 6.00 Build 0)  -->
<svg version="1.1" id="Layer_1" xmlns="http://www.w3.org/2000/svg" xmlns:xlink="http://www.w3.org/1999/xlink" x="0px" y="0px"
	 viewBox="0 0 244.1 63.5" style="enable-background:new 0 0 244.1 63.5;" xml:space="preserve">
<style type="text/css">
	.st0{fill:#DB202C;}
</style>
<g>
	<path class="st0" d="M0,3.5C4.9,3.2,9.7,3,14.6,2.8c5-0.2,8.7,0.8,11,3c2.4,2.2,3.6,5.6,3.8,10.3c0,0.8,0.1,1.6,0.1,2.4
		c0.1,3.1-0.3,5.6-1.3,7.6c-0.9,2-2.4,3.4-4.5,4.4c0,0.1,0,0.1,0,0.2c4.8,1.4,7.3,5.5,7.6,12.3c0.1,1.7,0.1,3.4,0.2,5.1
		c0.2,4.6-0.9,8.2-3.3,10.7c-2.3,2.5-5.9,3.9-10.6,4.1c-5,0.2-9.9,0.4-14.9,0.7C1.9,43.5,0.9,23.5,0,3.5z M14.5,27.3
		c1.9-0.1,3.3-0.6,4.3-1.6c0.9-1,1.3-2.7,1.2-5c0-1.1-0.1-2.2-0.1-3.3c-0.1-2.2-0.5-3.7-1.4-4.7c-0.8-0.9-2.1-1.4-3.8-1.3
		c-1.5,0.1-3.1,0.1-4.6,0.2c0.2,5.3,0.5,10.6,0.7,15.9C12,27.4,13.2,27.4,14.5,27.3z M17.3,54.3c1.7-0.1,2.9-0.6,3.7-1.5
		c0.8-0.9,1.1-2.5,1-4.6c-0.1-1.7-0.1-3.5-0.2-5.2c-0.1-2.7-0.7-4.6-1.7-5.6s-2.6-1.5-4.8-1.4c-1.4,0.1-2.8,0.1-4.3,0.2
		c0.3,6.1,0.5,12.3,0.8,18.4C13.7,54.4,15.5,54.4,17.3,54.3z"/>
	<path class="st0" d="M40.4,58.9c-2.6-2.6-3.9-6.2-4.1-11c-0.4-10.5-0.7-21.1-1.1-31.6c-0.2-4.8,1-8.6,3.4-11.3s6-4.1,10.8-4.3
		c4.8-0.1,8.4,1.1,11,3.7c2.6,2.6,3.9,6.3,4,11.1C64.7,26,65,36.6,65.2,47.1c0.1,4.8-1,8.6-3.4,11.3s-5.9,4.1-10.6,4.2
		C46.6,62.7,43,61.5,40.4,58.9z M55.7,47.9C55.4,37,55.1,26,54.8,15.1c-0.1-3.9-1.8-5.9-5.2-5.8c-3.3,0.1-4.9,2.1-4.8,6.1
		c0.3,10.9,0.7,21.9,1,32.8c0.1,3.9,1.8,5.9,5.1,5.8C54.2,53.9,55.8,51.9,55.7,47.9z"/>
	<path class="st0" d="M74.8,58.1c-2.5-2.6-3.8-6.3-3.9-11.1c-0.2-10.5-0.4-21.1-0.6-31.6c-0.1-4.8,1.1-8.6,3.6-11.2
		c2.5-2.7,6.1-4.1,10.8-4.1c4.8-0.1,8.4,1.2,11,3.8c2.5,2.6,3.8,6.3,3.9,11.1c0.1,10.5,0.2,21.1,0.3,31.6c0,4.8-1.2,8.5-3.6,11.2
		s-6,4-10.6,4.1C80.9,61.9,77.4,60.6,74.8,58.1z M90.3,47.2c-0.1-10.9-0.3-21.9-0.4-32.8c0-3.9-1.7-5.9-5.1-5.9c-3.3,0-5,2.1-4.9,6
		c0.2,10.9,0.4,21.9,0.5,32.8c0.1,3.9,1.7,5.9,5,5.8C88.7,53.2,90.3,51.2,90.3,47.2z"/>
	<path class="st0" d="M105.9,0.6c3.2,0,6.5,0,9.7,0c0,17.2,0.1,34.4,0.1,51.5c5.2,0,10.4,0,15.6,0c0,2.9,0,5.7,0,8.6
		c-8.3,0-16.7,0-25,0C106.1,40.7,106,20.7,105.9,0.6z"/>
	<path class="st0" d="M136.1,0.6c8.5,0,17.1,0.1,25.6,0.3c0,2.9-0.1,5.7-0.1,8.6c-5.3-0.1-10.6-0.1-15.9-0.2
		c-0.1,5.6-0.1,11.2-0.2,16.7c4.1,0,8.2,0.1,12.4,0.1c0,2.9-0.1,5.7-0.1,8.6c-4.1-0.1-8.2-0.1-12.3-0.1c-0.1,8.7-0.2,17.5-0.2,26.2
		c-3.2,0-6.3-0.1-9.5-0.1C135.9,40.7,136,20.7,136.1,0.6z"/>
	<path class="st0" d="M166.4,1c3.2,0.1,6.4,0.1,9.7,0.2c-0.4,17.2-0.7,34.3-1.1,51.5c5.2,0.1,10.4,0.2,15.6,0.4
		c-0.1,2.9-0.2,5.7-0.2,8.6c-8.3-0.2-16.7-0.4-25-0.5C165.7,41,166.1,21,166.4,1z"/>
	<path class="st0" d="M196.7,1.6c3.2,0.1,6.4,0.2,9.7,0.3C205.7,22,205,42,204.4,62c-3.1-0.1-6.3-0.2-9.4-0.3
		C195.5,41.7,196.1,21.7,196.7,1.6z"/>
	<path class="st0" d="M220.9,31.9c-3.1-9.9-6.3-19.8-9.5-29.7c3.4,0.1,6.8,0.2,10.2,0.4c1.9,6.5,3.8,13.1,5.7,19.6
		c0.1,0,0.1,0,0.2,0c2.5-6.4,5-12.7,7.5-19.1c3,0.1,6.1,0.3,9.1,0.4c-4,9.6-8,19.2-11.9,28.9c3.2,10.4,6.4,20.8,9.6,31.2
		c-3.3-0.2-6.6-0.3-10-0.5c-2-7.1-4-14.2-6-21.2c-0.1,0-0.1,0-0.2,0c-2.6,6.9-5.3,13.8-7.9,20.7c-3-0.1-6-0.2-8.9-0.3
		C212.8,52.1,216.9,42,220.9,31.9z"/>
</g>
</svg>
